<svg xmlns="http://www.w3.org/2000/svg" xmlns:xlink="http://www.w3.org/1999/xlink" viewBox="0 0 200 200"><defs><style>.cls-1{fill:#fff;}.cls-2{clip-path:url(#clip-path);}.cls-3{fill:#18181b;}</style><clipPath id="clip-path" transform="translate(3.7 3.7)"><circle class="cls-1" cx="96.3" cy="96.3" r="96.3"/></clipPath></defs><g id="Layer_2" data-name="Layer 2"><g id="Layer_1-2" data-name="Layer 1"><circle class="cls-1" cx="100" cy="100" r="96.3"/><g class="cls-2"><path class="cls-3" d="M125.69-2a5.84,5.84,0,0,0-8.24,0c-25,25.05-28,64-26.44,97.23,1.51,33-1.57,68.59-24.1,91.13a5.82,5.82,0,1,0,8.24,8.23c26.16-26.16,29.05-65.86,27.5-99.9-1.48-32.16,1.63-67,23-88.46A5.82,5.82,0,0,0,125.69-2Z" transform="translate(3.7 3.7)"/><path class="cls-3" d="M6.24,125.69a69.28,69.28,0,0,1,12.69-10L73,169.75a71.39,71.39,0,0,0,3.55-6.84L25.64,112a94,94,0,0,1,14.09-5.55l41.9,41.9c.74-2.8,1.36-5.64,1.89-8.5L47.94,104.29a133,133,0,0,1,17-2.64l20.69,20.68c.21-3.38.33-6.72.38-10L74.75,101.07c3.79-.11,7.56-.1,11.27,0-.08-1.87-.17-3.75-.25-5.64s-.19-4-.28-6c-29.34-1-64.26,4.78-87.49,28a5.83,5.83,0,0,0,8.24,8.24Z" transform="translate(3.7 3.7)"/><path class="cls-3" d="M186.36,66.9a65.15,65.15,0,0,1-12.82,9.87L119.69,22.92a67.77,67.77,0,0,0-3.45,6.93l50.5,50.51a94.37,94.37,0,0,1-14.34,5.3l-41-41c-.65,2.77-1.24,5.65-1.72,8.66L144,87.69A136.77,136.77,0,0,1,126.74,90L107.17,70.46q0,5.21.17,10.56l9.45,9.45c-3.05,0-6.09,0-9.09-.1.06,1.35.13,2.71.19,4.07.11,2.53.23,5.07.33,7.61,29.28,1.07,64-4.57,86.38-26.9a5.83,5.83,0,0,0-8.24-8.25Z" transform="translate(3.7 3.7)"/></g></g></g></svg>